<svg xmlns="http://www.w3.org/2000/svg" xmlns:xlink="http://www.w3.org/1999/xlink" version="1.1" id="Layer_1" x="0px" y="0px" viewBox="0 0 100 100" enable-background="new 0 0 100 100" xml:space="preserve">
<g id="Layer_1_1_" display="none">
</g>
<g>
	<path fill="#000000" d="M97.039,50.305c0-26.185-21.304-47.487-47.487-47.487c-26.185,0-47.487,21.302-47.487,47.487   c0,17.849,9.901,33.427,24.497,41.537c0.018,0.011,0.034,0.022,0.052,0.033c0.012,0.006,0.024,0.01,0.037,0.017   c6.795,3.758,14.603,5.899,22.901,5.899c9.25,0,17.889-2.661,25.196-7.255c0.023-0.013,0.048-0.021,0.07-0.036   c0.028-0.018,0.056-0.039,0.082-0.058C88.195,82.017,97.039,67.175,97.039,50.305z M74.405,86.497l-0.284-0.453   c-0.525-0.833-1.627-1.082-2.459-0.559c-0.834,0.524-1.084,1.625-0.56,2.459l0.288,0.457c-5.952,3.426-12.778,5.492-20.056,5.783   v-0.536c0-0.984-0.798-1.783-1.783-1.783s-1.783,0.799-1.783,1.783v0.536c-6.394-0.256-12.44-1.885-17.851-4.602l0.261-0.471   c0.476-0.862,0.164-1.946-0.698-2.424c-0.862-0.476-1.947-0.164-2.423,0.698l-0.261,0.473c-5.299-3.224-9.865-7.539-13.385-12.628   l0.465-0.294c0.833-0.523,1.083-1.625,0.559-2.459c-0.524-0.833-1.625-1.082-2.459-0.56l-0.476,0.3   c-3.442-5.952-5.525-12.783-5.827-20.066h0.599c0.985,0,1.783-0.799,1.783-1.783c0-0.985-0.798-1.783-1.783-1.783H5.669   c0.248-6.409,1.874-12.47,4.592-17.893l0.548,0.303c0.273,0.15,0.569,0.223,0.86,0.223c0.628,0,1.237-0.333,1.562-0.921   c0.476-0.862,0.164-1.947-0.698-2.423l-0.549-0.303c3.228-5.314,7.554-9.891,12.657-13.418l0.342,0.542   c0.338,0.539,0.918,0.833,1.51,0.833c0.324,0,0.654-0.089,0.948-0.274c0.833-0.525,1.083-1.626,0.559-2.459l-0.347-0.551   c5.966-3.445,12.814-5.527,20.114-5.819v0.666c0,0.984,0.798,1.783,1.783,1.783s1.783-0.798,1.783-1.783V6.423   c6.417,0.257,12.482,1.897,17.907,4.629l-0.315,0.574c-0.478,0.862-0.166,1.947,0.697,2.423c0.272,0.151,0.568,0.223,0.861,0.223   c0.628,0,1.236-0.333,1.562-0.922l0.313-0.567c5.31,3.238,9.878,7.573,13.396,12.685L85.228,25.8   c-0.832,0.525-1.084,1.626-0.56,2.459c0.34,0.539,0.919,0.833,1.512,0.833c0.324,0,0.653-0.088,0.949-0.274l0.531-0.334   c3.428,5.965,5.493,12.809,5.776,20.102h-0.604c-0.986,0-1.783,0.798-1.783,1.783c0,0.984,0.797,1.783,1.783,1.783h0.598   c-0.266,6.401-1.908,12.452-4.639,17.865l-0.497-0.275c-0.861-0.477-1.946-0.163-2.424,0.698c-0.475,0.862-0.163,1.947,0.699,2.423   l0.489,0.271C83.826,78.428,79.503,82.985,74.405,86.497z"/>
	<path fill="#000000" d="M65.442,48.521H51.335V16.807c0-0.985-0.798-1.783-1.783-1.783s-1.783,0.798-1.783,1.783v33.498   c0,0.273,0.063,0.531,0.173,0.763L26.875,72.022c-0.232,0.232-0.233,0.607-0.001,0.841c0.116,0.117,0.268,0.175,0.421,0.175   c0.152,0,0.303-0.057,0.419-0.173L48.78,51.91c0.234,0.112,0.495,0.178,0.772,0.178l0,0l0,0h15.89c0.986,0,1.783-0.799,1.783-1.783   C67.226,49.32,66.429,48.521,65.442,48.521z"/>
</g>
</svg>